<?xml version="1.0" standalone="no"?>
<!DOCTYPE svg PUBLIC "-//W3C//DTD SVG 20010904//EN"
 "http://www.w3.org/TR/2001/REC-SVG-20010904/DTD/svg10.dtd">
<svg version="1.0" xmlns="http://www.w3.org/2000/svg"
 width="96.000000pt" height="96.000000pt" viewBox="0 0 96.000000 96.000000"
 preserveAspectRatio="xMidYMid meet">
<metadata>
Created by potrace 1.14, written by Peter Selinger 2001-2017
</metadata>
<g transform="translate(0.000000,96.000000) scale(0.100000,-0.100000)"
fill="#000000" stroke="none">
<path d="M435 936 c-15 -22 -20 -23 -157 -25 -78 -1 -145 -4 -150 -7 -11 -7
-10 -825 1 -843 13 -20 689 -21 701 0 11 17 13 819 2 836 -5 8 -50 13 -146 14
-130 2 -139 3 -162 25 -30 31 -69 31 -89 0z m79 -5 c21 -23 14 -56 -15 -72
-29 -15 -73 14 -65 44 3 12 6 25 6 29 0 6 22 14 46 17 6 0 19 -8 28 -18z"/>
</g>
</svg>
